# xmcd
#
# Track frame offsets:
#       150
#       20293
#       45171
#       75325
#       95460
#       110764
#       136029
#       174326
#       203998
#       241323
#       280285
#       296512
#
# Disc length: 4349 seconds
#
# Revision: 1
# Processed by: cddbd v1.4PL0 Copyright (c) Steve Scherf et al.
# Submitted via: MusiCat 1.1
#
DISCID=9610fb0c
DTITLE=Bruce Springsteen - Intimate Night CD 1
DYEAR=2003
DGENRE=
TTITLE0=Darkness on the Edge of Town
TTITLE1=Adam Raised a Cain
TTITLE2=My Father's House
TTITLE3=Does This Bus Stop ar 82nd Street
TTITLE4=Growin' Up
TTITLE5="Does This Bus Stop at 82nd Street"
TTITLE6=Freehold
TTITLE7=Thunder Road
TTITLE8=Nebraska
TTITLE9=Rhe River
TTITLE10=Sherry Darling
TTITLE11=Born in the U.S.A.
EXTD=2003\nThe Godfatherecords\nG.R. 17/18\nSomerville, MA, Somerville Theatre
EXTD=, Februari 19th, 2003\r\n\r\nThe first of two benifit acoustic shows for 
EXTD=the struggling DoubleTake Magazine, billed as "two intimate evenings of m
EXTD=usic and conversation"
EXTT0=
EXTT1=
EXTT2=
EXTT3=
EXTT4=
EXTT5=Line-by-line explication of\r\n
EXTT6=
EXTT7=piano
EXTT8=
EXTT9=
EXTT10=
EXTT11=12-string
PLAYORDER=
